# xmcd CD database file
#
# Track frame offsets:
#	150
#	19337
#	45207
#
# Disc length: 857 seconds
#
# Revision: 0
# Processed by: cddbd v1.5PL3 Copyright (c) Steve Scherf et al.
# Submitted via: CDex 1.51
#
DISCID=18035703
DTITLE=FBI - Give me love - Give you love
DYEAR=1998
DGENRE=JPop
TTITLE0=Give me love - Give you love
TTITLE1=Give me love - Give you love 〜freak-bop mix〜
TTITLE2=Give me love - Give you love 〜back track〜
EXTD=YEAR: 1998
EXTT0=
EXTT1=
EXTT2=
PLAYORDER=
